<mxfile host="app.diagrams.net" modified="2021-03-09T08:39:20.518Z" agent="5.0 (Windows NT 10.0; Win64; x64) AppleWebKit/537.36 (KHTML, like Gecko) Chrome/88.0.4324.190 Safari/537.36" etag="EpHvz1nlI5nUVjl9EyTn" version="14.4.5" type="github">
  <diagram id="yXhrrc6hhMnCA1xcQptM" name="Page-1">
    <mxGraphModel dx="813" dy="435" grid="1" gridSize="10" guides="1" tooltips="1" connect="1" arrows="1" fold="1" page="1" pageScale="1" pageWidth="827" pageHeight="1169" math="0" shadow="0">
      <root>
        <mxCell id="0" />
        <mxCell id="1" parent="0" />
        <mxCell id="uxoelkwABOxgSLTbUYhB-1" value="3" style="rounded=0;whiteSpace=wrap;html=1;" vertex="1" parent="1">
          <mxGeometry x="190" y="210" width="30" height="30" as="geometry" />
        </mxCell>
        <mxCell id="uxoelkwABOxgSLTbUYhB-2" value="3" style="rounded=0;whiteSpace=wrap;html=1;" vertex="1" parent="1">
          <mxGeometry x="160" y="210" width="30" height="30" as="geometry" />
        </mxCell>
        <mxCell id="uxoelkwABOxgSLTbUYhB-3" value="3" style="rounded=0;whiteSpace=wrap;html=1;" vertex="1" parent="1">
          <mxGeometry x="220" y="210" width="30" height="30" as="geometry" />
        </mxCell>
        <mxCell id="uxoelkwABOxgSLTbUYhB-5" value="3" style="rounded=0;whiteSpace=wrap;html=1;" vertex="1" parent="1">
          <mxGeometry x="190" y="240" width="30" height="30" as="geometry" />
        </mxCell>
        <mxCell id="uxoelkwABOxgSLTbUYhB-6" value="3" style="rounded=0;whiteSpace=wrap;html=1;" vertex="1" parent="1">
          <mxGeometry x="160" y="240" width="30" height="30" as="geometry" />
        </mxCell>
        <mxCell id="uxoelkwABOxgSLTbUYhB-7" value="3" style="rounded=0;whiteSpace=wrap;html=1;" vertex="1" parent="1">
          <mxGeometry x="220" y="240" width="30" height="30" as="geometry" />
        </mxCell>
        <mxCell id="uxoelkwABOxgSLTbUYhB-8" value="3" style="rounded=0;whiteSpace=wrap;html=1;" vertex="1" parent="1">
          <mxGeometry x="190" y="270" width="30" height="30" as="geometry" />
        </mxCell>
        <mxCell id="uxoelkwABOxgSLTbUYhB-9" value="3" style="rounded=0;whiteSpace=wrap;html=1;" vertex="1" parent="1">
          <mxGeometry x="160" y="270" width="30" height="30" as="geometry" />
        </mxCell>
        <mxCell id="uxoelkwABOxgSLTbUYhB-10" value="3" style="rounded=0;whiteSpace=wrap;html=1;" vertex="1" parent="1">
          <mxGeometry x="220" y="270" width="30" height="30" as="geometry" />
        </mxCell>
        <mxCell id="uxoelkwABOxgSLTbUYhB-11" value="3" style="rounded=0;whiteSpace=wrap;html=1;" vertex="1" parent="1">
          <mxGeometry x="350" y="110" width="30" height="30" as="geometry" />
        </mxCell>
        <mxCell id="uxoelkwABOxgSLTbUYhB-12" value="5" style="rounded=0;whiteSpace=wrap;html=1;" vertex="1" parent="1">
          <mxGeometry x="320" y="110" width="30" height="30" as="geometry" />
        </mxCell>
        <mxCell id="uxoelkwABOxgSLTbUYhB-13" value="3" style="rounded=0;whiteSpace=wrap;html=1;" vertex="1" parent="1">
          <mxGeometry x="380" y="110" width="30" height="30" as="geometry" />
        </mxCell>
        <mxCell id="uxoelkwABOxgSLTbUYhB-14" value="3" style="rounded=0;whiteSpace=wrap;html=1;" vertex="1" parent="1">
          <mxGeometry x="350" y="140" width="30" height="30" as="geometry" />
        </mxCell>
        <mxCell id="uxoelkwABOxgSLTbUYhB-15" value="3" style="rounded=0;whiteSpace=wrap;html=1;" vertex="1" parent="1">
          <mxGeometry x="320" y="140" width="30" height="30" as="geometry" />
        </mxCell>
        <mxCell id="uxoelkwABOxgSLTbUYhB-16" value="3" style="rounded=0;whiteSpace=wrap;html=1;" vertex="1" parent="1">
          <mxGeometry x="380" y="140" width="30" height="30" as="geometry" />
        </mxCell>
        <mxCell id="uxoelkwABOxgSLTbUYhB-17" value="8" style="rounded=0;whiteSpace=wrap;html=1;" vertex="1" parent="1">
          <mxGeometry x="350" y="170" width="30" height="30" as="geometry" />
        </mxCell>
        <mxCell id="uxoelkwABOxgSLTbUYhB-18" value="3" style="rounded=0;whiteSpace=wrap;html=1;" vertex="1" parent="1">
          <mxGeometry x="320" y="170" width="30" height="30" as="geometry" />
        </mxCell>
        <mxCell id="uxoelkwABOxgSLTbUYhB-19" value="3" style="rounded=0;whiteSpace=wrap;html=1;" vertex="1" parent="1">
          <mxGeometry x="380" y="170" width="30" height="30" as="geometry" />
        </mxCell>
        <mxCell id="uxoelkwABOxgSLTbUYhB-20" value="3" style="rounded=0;whiteSpace=wrap;html=1;" vertex="1" parent="1">
          <mxGeometry x="440" y="110" width="30" height="30" as="geometry" />
        </mxCell>
        <mxCell id="uxoelkwABOxgSLTbUYhB-21" value="3" style="rounded=0;whiteSpace=wrap;html=1;" vertex="1" parent="1">
          <mxGeometry x="410" y="110" width="30" height="30" as="geometry" />
        </mxCell>
        <mxCell id="uxoelkwABOxgSLTbUYhB-22" value="3" style="rounded=0;whiteSpace=wrap;html=1;" vertex="1" parent="1">
          <mxGeometry x="470" y="110" width="30" height="30" as="geometry" />
        </mxCell>
        <mxCell id="uxoelkwABOxgSLTbUYhB-23" value="3" style="rounded=0;whiteSpace=wrap;html=1;" vertex="1" parent="1">
          <mxGeometry x="440" y="140" width="30" height="30" as="geometry" />
        </mxCell>
        <mxCell id="uxoelkwABOxgSLTbUYhB-24" value="3" style="rounded=0;whiteSpace=wrap;html=1;" vertex="1" parent="1">
          <mxGeometry x="410" y="140" width="30" height="30" as="geometry" />
        </mxCell>
        <mxCell id="uxoelkwABOxgSLTbUYhB-25" value="4" style="rounded=0;whiteSpace=wrap;html=1;" vertex="1" parent="1">
          <mxGeometry x="470" y="140" width="30" height="30" as="geometry" />
        </mxCell>
        <mxCell id="uxoelkwABOxgSLTbUYhB-26" value="3" style="rounded=0;whiteSpace=wrap;html=1;" vertex="1" parent="1">
          <mxGeometry x="440" y="170" width="30" height="30" as="geometry" />
        </mxCell>
        <mxCell id="uxoelkwABOxgSLTbUYhB-27" value="7" style="rounded=0;whiteSpace=wrap;html=1;" vertex="1" parent="1">
          <mxGeometry x="410" y="170" width="30" height="30" as="geometry" />
        </mxCell>
        <mxCell id="uxoelkwABOxgSLTbUYhB-28" value="3" style="rounded=0;whiteSpace=wrap;html=1;" vertex="1" parent="1">
          <mxGeometry x="470" y="170" width="30" height="30" as="geometry" />
        </mxCell>
        <mxCell id="uxoelkwABOxgSLTbUYhB-29" value="3" style="rounded=0;whiteSpace=wrap;html=1;" vertex="1" parent="1">
          <mxGeometry x="530" y="110" width="30" height="30" as="geometry" />
        </mxCell>
        <mxCell id="uxoelkwABOxgSLTbUYhB-30" value="3" style="rounded=0;whiteSpace=wrap;html=1;" vertex="1" parent="1">
          <mxGeometry x="500" y="110" width="30" height="30" as="geometry" />
        </mxCell>
        <mxCell id="uxoelkwABOxgSLTbUYhB-31" value="3" style="rounded=0;whiteSpace=wrap;html=1;" vertex="1" parent="1">
          <mxGeometry x="560" y="110" width="30" height="30" as="geometry" />
        </mxCell>
        <mxCell id="uxoelkwABOxgSLTbUYhB-32" value="8" style="rounded=0;whiteSpace=wrap;html=1;" vertex="1" parent="1">
          <mxGeometry x="530" y="140" width="30" height="30" as="geometry" />
        </mxCell>
        <mxCell id="uxoelkwABOxgSLTbUYhB-33" value="3" style="rounded=0;whiteSpace=wrap;html=1;" vertex="1" parent="1">
          <mxGeometry x="500" y="140" width="30" height="30" as="geometry" />
        </mxCell>
        <mxCell id="uxoelkwABOxgSLTbUYhB-34" value="3" style="rounded=0;whiteSpace=wrap;html=1;" vertex="1" parent="1">
          <mxGeometry x="560" y="140" width="30" height="30" as="geometry" />
        </mxCell>
        <mxCell id="uxoelkwABOxgSLTbUYhB-35" value="2" style="rounded=0;whiteSpace=wrap;html=1;" vertex="1" parent="1">
          <mxGeometry x="530" y="170" width="30" height="30" as="geometry" />
        </mxCell>
        <mxCell id="uxoelkwABOxgSLTbUYhB-36" value="3" style="rounded=0;whiteSpace=wrap;html=1;" vertex="1" parent="1">
          <mxGeometry x="500" y="170" width="30" height="30" as="geometry" />
        </mxCell>
        <mxCell id="uxoelkwABOxgSLTbUYhB-37" value="3" style="rounded=0;whiteSpace=wrap;html=1;" vertex="1" parent="1">
          <mxGeometry x="560" y="170" width="30" height="30" as="geometry" />
        </mxCell>
        <mxCell id="uxoelkwABOxgSLTbUYhB-38" value="3" style="rounded=0;whiteSpace=wrap;html=1;" vertex="1" parent="1">
          <mxGeometry x="350" y="200" width="30" height="30" as="geometry" />
        </mxCell>
        <mxCell id="uxoelkwABOxgSLTbUYhB-39" value="9" style="rounded=0;whiteSpace=wrap;html=1;" vertex="1" parent="1">
          <mxGeometry x="320" y="200" width="30" height="30" as="geometry" />
        </mxCell>
        <mxCell id="uxoelkwABOxgSLTbUYhB-40" value="3" style="rounded=0;whiteSpace=wrap;html=1;" vertex="1" parent="1">
          <mxGeometry x="380" y="200" width="30" height="30" as="geometry" />
        </mxCell>
        <mxCell id="uxoelkwABOxgSLTbUYhB-41" value="6" style="rounded=0;whiteSpace=wrap;html=1;" vertex="1" parent="1">
          <mxGeometry x="350" y="230" width="30" height="30" as="geometry" />
        </mxCell>
        <mxCell id="uxoelkwABOxgSLTbUYhB-42" value="3" style="rounded=0;whiteSpace=wrap;html=1;" vertex="1" parent="1">
          <mxGeometry x="320" y="230" width="30" height="30" as="geometry" />
        </mxCell>
        <mxCell id="uxoelkwABOxgSLTbUYhB-43" value="3" style="rounded=0;whiteSpace=wrap;html=1;" vertex="1" parent="1">
          <mxGeometry x="380" y="230" width="30" height="30" as="geometry" />
        </mxCell>
        <mxCell id="uxoelkwABOxgSLTbUYhB-44" value="3" style="rounded=0;whiteSpace=wrap;html=1;" vertex="1" parent="1">
          <mxGeometry x="350" y="260" width="30" height="30" as="geometry" />
        </mxCell>
        <mxCell id="uxoelkwABOxgSLTbUYhB-45" value="3" style="rounded=0;whiteSpace=wrap;html=1;" vertex="1" parent="1">
          <mxGeometry x="320" y="260" width="30" height="30" as="geometry" />
        </mxCell>
        <mxCell id="uxoelkwABOxgSLTbUYhB-46" value="3" style="rounded=0;whiteSpace=wrap;html=1;" vertex="1" parent="1">
          <mxGeometry x="380" y="260" width="30" height="30" as="geometry" />
        </mxCell>
        <mxCell id="uxoelkwABOxgSLTbUYhB-47" value="9" style="rounded=0;whiteSpace=wrap;html=1;" vertex="1" parent="1">
          <mxGeometry x="440" y="200" width="30" height="30" as="geometry" />
        </mxCell>
        <mxCell id="uxoelkwABOxgSLTbUYhB-48" value="3" style="rounded=0;whiteSpace=wrap;html=1;" vertex="1" parent="1">
          <mxGeometry x="410" y="200" width="30" height="30" as="geometry" />
        </mxCell>
        <mxCell id="uxoelkwABOxgSLTbUYhB-49" value="3" style="rounded=0;whiteSpace=wrap;html=1;" vertex="1" parent="1">
          <mxGeometry x="470" y="200" width="30" height="30" as="geometry" />
        </mxCell>
        <mxCell id="uxoelkwABOxgSLTbUYhB-50" value="3" style="rounded=0;whiteSpace=wrap;html=1;" vertex="1" parent="1">
          <mxGeometry x="440" y="230" width="30" height="30" as="geometry" />
        </mxCell>
        <mxCell id="uxoelkwABOxgSLTbUYhB-51" value="3" style="rounded=0;whiteSpace=wrap;html=1;" vertex="1" parent="1">
          <mxGeometry x="410" y="230" width="30" height="30" as="geometry" />
        </mxCell>
        <mxCell id="uxoelkwABOxgSLTbUYhB-52" value="6" style="rounded=0;whiteSpace=wrap;html=1;" vertex="1" parent="1">
          <mxGeometry x="470" y="230" width="30" height="30" as="geometry" />
        </mxCell>
        <mxCell id="uxoelkwABOxgSLTbUYhB-53" value="3" style="rounded=0;whiteSpace=wrap;html=1;" vertex="1" parent="1">
          <mxGeometry x="440" y="260" width="30" height="30" as="geometry" />
        </mxCell>
        <mxCell id="uxoelkwABOxgSLTbUYhB-54" value="3" style="rounded=0;whiteSpace=wrap;html=1;" vertex="1" parent="1">
          <mxGeometry x="410" y="260" width="30" height="30" as="geometry" />
        </mxCell>
        <mxCell id="uxoelkwABOxgSLTbUYhB-55" value="3" style="rounded=0;whiteSpace=wrap;html=1;" vertex="1" parent="1">
          <mxGeometry x="470" y="260" width="30" height="30" as="geometry" />
        </mxCell>
        <mxCell id="uxoelkwABOxgSLTbUYhB-56" value="3" style="rounded=0;whiteSpace=wrap;html=1;" vertex="1" parent="1">
          <mxGeometry x="530" y="200" width="30" height="30" as="geometry" />
        </mxCell>
        <mxCell id="uxoelkwABOxgSLTbUYhB-57" value="1" style="rounded=0;whiteSpace=wrap;html=1;" vertex="1" parent="1">
          <mxGeometry x="500" y="200" width="30" height="30" as="geometry" />
        </mxCell>
        <mxCell id="uxoelkwABOxgSLTbUYhB-58" value="3" style="rounded=0;whiteSpace=wrap;html=1;" vertex="1" parent="1">
          <mxGeometry x="560" y="200" width="30" height="30" as="geometry" />
        </mxCell>
        <mxCell id="uxoelkwABOxgSLTbUYhB-59" value="3" style="rounded=0;whiteSpace=wrap;html=1;" vertex="1" parent="1">
          <mxGeometry x="530" y="230" width="30" height="30" as="geometry" />
        </mxCell>
        <mxCell id="uxoelkwABOxgSLTbUYhB-60" value="1" style="rounded=0;whiteSpace=wrap;html=1;" vertex="1" parent="1">
          <mxGeometry x="500" y="230" width="30" height="30" as="geometry" />
        </mxCell>
        <mxCell id="uxoelkwABOxgSLTbUYhB-61" value="3" style="rounded=0;whiteSpace=wrap;html=1;" vertex="1" parent="1">
          <mxGeometry x="560" y="230" width="30" height="30" as="geometry" />
        </mxCell>
        <mxCell id="uxoelkwABOxgSLTbUYhB-62" value="3" style="rounded=0;whiteSpace=wrap;html=1;" vertex="1" parent="1">
          <mxGeometry x="530" y="260" width="30" height="30" as="geometry" />
        </mxCell>
        <mxCell id="uxoelkwABOxgSLTbUYhB-63" value="3" style="rounded=0;whiteSpace=wrap;html=1;" vertex="1" parent="1">
          <mxGeometry x="500" y="260" width="30" height="30" as="geometry" />
        </mxCell>
        <mxCell id="uxoelkwABOxgSLTbUYhB-64" value="3" style="rounded=0;whiteSpace=wrap;html=1;" vertex="1" parent="1">
          <mxGeometry x="560" y="260" width="30" height="30" as="geometry" />
        </mxCell>
        <mxCell id="uxoelkwABOxgSLTbUYhB-65" value="3" style="rounded=0;whiteSpace=wrap;html=1;" vertex="1" parent="1">
          <mxGeometry x="350" y="290" width="30" height="30" as="geometry" />
        </mxCell>
        <mxCell id="uxoelkwABOxgSLTbUYhB-66" value="6" style="rounded=0;whiteSpace=wrap;html=1;" vertex="1" parent="1">
          <mxGeometry x="320" y="290" width="30" height="30" as="geometry" />
        </mxCell>
        <mxCell id="uxoelkwABOxgSLTbUYhB-67" value="3" style="rounded=0;whiteSpace=wrap;html=1;" vertex="1" parent="1">
          <mxGeometry x="380" y="290" width="30" height="30" as="geometry" />
        </mxCell>
        <mxCell id="uxoelkwABOxgSLTbUYhB-68" value="3" style="rounded=0;whiteSpace=wrap;html=1;" vertex="1" parent="1">
          <mxGeometry x="350" y="320" width="30" height="30" as="geometry" />
        </mxCell>
        <mxCell id="uxoelkwABOxgSLTbUYhB-69" value="3" style="rounded=0;whiteSpace=wrap;html=1;" vertex="1" parent="1">
          <mxGeometry x="320" y="320" width="30" height="30" as="geometry" />
        </mxCell>
        <mxCell id="uxoelkwABOxgSLTbUYhB-70" value="3" style="rounded=0;whiteSpace=wrap;html=1;" vertex="1" parent="1">
          <mxGeometry x="380" y="320" width="30" height="30" as="geometry" />
        </mxCell>
        <mxCell id="uxoelkwABOxgSLTbUYhB-71" value="2" style="rounded=0;whiteSpace=wrap;html=1;" vertex="1" parent="1">
          <mxGeometry x="350" y="350" width="30" height="30" as="geometry" />
        </mxCell>
        <mxCell id="uxoelkwABOxgSLTbUYhB-72" value="3" style="rounded=0;whiteSpace=wrap;html=1;" vertex="1" parent="1">
          <mxGeometry x="320" y="350" width="30" height="30" as="geometry" />
        </mxCell>
        <mxCell id="uxoelkwABOxgSLTbUYhB-73" value="3" style="rounded=0;whiteSpace=wrap;html=1;" vertex="1" parent="1">
          <mxGeometry x="380" y="350" width="30" height="30" as="geometry" />
        </mxCell>
        <mxCell id="uxoelkwABOxgSLTbUYhB-74" value="3" style="rounded=0;whiteSpace=wrap;html=1;" vertex="1" parent="1">
          <mxGeometry x="440" y="290" width="30" height="30" as="geometry" />
        </mxCell>
        <mxCell id="uxoelkwABOxgSLTbUYhB-75" value="1" style="rounded=0;whiteSpace=wrap;html=1;" vertex="1" parent="1">
          <mxGeometry x="410" y="290" width="30" height="30" as="geometry" />
        </mxCell>
        <mxCell id="uxoelkwABOxgSLTbUYhB-76" value="2" style="rounded=0;whiteSpace=wrap;html=1;" vertex="1" parent="1">
          <mxGeometry x="470" y="290" width="30" height="30" as="geometry" />
        </mxCell>
        <mxCell id="uxoelkwABOxgSLTbUYhB-77" value="3" style="rounded=0;whiteSpace=wrap;html=1;" vertex="1" parent="1">
          <mxGeometry x="440" y="320" width="30" height="30" as="geometry" />
        </mxCell>
        <mxCell id="uxoelkwABOxgSLTbUYhB-78" value="3" style="rounded=0;whiteSpace=wrap;html=1;" vertex="1" parent="1">
          <mxGeometry x="410" y="320" width="30" height="30" as="geometry" />
        </mxCell>
        <mxCell id="uxoelkwABOxgSLTbUYhB-79" value="2" style="rounded=0;whiteSpace=wrap;html=1;" vertex="1" parent="1">
          <mxGeometry x="470" y="320" width="30" height="30" as="geometry" />
        </mxCell>
        <mxCell id="uxoelkwABOxgSLTbUYhB-80" value="3" style="rounded=0;whiteSpace=wrap;html=1;" vertex="1" parent="1">
          <mxGeometry x="440" y="350" width="30" height="30" as="geometry" />
        </mxCell>
        <mxCell id="uxoelkwABOxgSLTbUYhB-81" value="3" style="rounded=0;whiteSpace=wrap;html=1;" vertex="1" parent="1">
          <mxGeometry x="410" y="350" width="30" height="30" as="geometry" />
        </mxCell>
        <mxCell id="uxoelkwABOxgSLTbUYhB-82" value="3" style="rounded=0;whiteSpace=wrap;html=1;" vertex="1" parent="1">
          <mxGeometry x="470" y="350" width="30" height="30" as="geometry" />
        </mxCell>
        <mxCell id="uxoelkwABOxgSLTbUYhB-83" value="3" style="rounded=0;whiteSpace=wrap;html=1;" vertex="1" parent="1">
          <mxGeometry x="530" y="290" width="30" height="30" as="geometry" />
        </mxCell>
        <mxCell id="uxoelkwABOxgSLTbUYhB-84" value="3" style="rounded=0;whiteSpace=wrap;html=1;" vertex="1" parent="1">
          <mxGeometry x="500" y="290" width="30" height="30" as="geometry" />
        </mxCell>
        <mxCell id="uxoelkwABOxgSLTbUYhB-85" value="9" style="rounded=0;whiteSpace=wrap;html=1;" vertex="1" parent="1">
          <mxGeometry x="560" y="290" width="30" height="30" as="geometry" />
        </mxCell>
        <mxCell id="uxoelkwABOxgSLTbUYhB-86" value="3" style="rounded=0;whiteSpace=wrap;html=1;" vertex="1" parent="1">
          <mxGeometry x="530" y="320" width="30" height="30" as="geometry" />
        </mxCell>
        <mxCell id="uxoelkwABOxgSLTbUYhB-87" value="5" style="rounded=0;whiteSpace=wrap;html=1;" vertex="1" parent="1">
          <mxGeometry x="500" y="320" width="30" height="30" as="geometry" />
        </mxCell>
        <mxCell id="uxoelkwABOxgSLTbUYhB-88" value="3" style="rounded=0;whiteSpace=wrap;html=1;" vertex="1" parent="1">
          <mxGeometry x="560" y="320" width="30" height="30" as="geometry" />
        </mxCell>
        <mxCell id="uxoelkwABOxgSLTbUYhB-89" value="3" style="rounded=0;whiteSpace=wrap;html=1;" vertex="1" parent="1">
          <mxGeometry x="530" y="350" width="30" height="30" as="geometry" />
        </mxCell>
        <mxCell id="uxoelkwABOxgSLTbUYhB-90" value="3" style="rounded=0;whiteSpace=wrap;html=1;" vertex="1" parent="1">
          <mxGeometry x="500" y="350" width="30" height="30" as="geometry" />
        </mxCell>
        <mxCell id="uxoelkwABOxgSLTbUYhB-91" value="3" style="rounded=0;whiteSpace=wrap;html=1;" vertex="1" parent="1">
          <mxGeometry x="560" y="350" width="30" height="30" as="geometry" />
        </mxCell>
        <mxCell id="uxoelkwABOxgSLTbUYhB-92" value="Mal" style="text;html=1;strokeColor=none;fillColor=none;align=center;verticalAlign=middle;whiteSpace=wrap;rounded=0;" vertex="1" parent="1">
          <mxGeometry x="160" y="180" width="40" height="20" as="geometry" />
        </mxCell>
        <mxCell id="uxoelkwABOxgSLTbUYhB-93" value="Originial" style="text;html=1;align=center;verticalAlign=middle;resizable=0;points=[];autosize=1;" vertex="1" parent="1">
          <mxGeometry x="320" y="80" width="60" height="20" as="geometry" />
        </mxCell>
      </root>
    </mxGraphModel>
  </diagram>
</mxfile>
